<svg xmlns="http://www.w3.org/2000/svg" xml:space="preserve" viewBox="0 0 500.002 500.002">
  <path d="M493.146 23.427 476.574 6.851c-9.14-9.132-24.012-9.136-33.144 0L35.846 414.443c-.032.032-.048.068-.08.1-.216.22-.4.468-.584.716-.132.172-.276.336-.392.52-.132.196-.228.416-.332.624-.136.26-.276.516-.38.784-.016.044-.04.076-.056.124l-21.28 58.9L2.29 486.666c-3.052 3.052-3.052 8 0 11.048 1.528 1.528 3.524 2.288 5.524 2.288s4.004-.76 5.524-2.288l10.452-10.456 58.9-21.276c.048-.016.084-.04.124-.056.268-.108.524-.244.784-.38.212-.108.424-.2.624-.332.184-.116.352-.26.524-.4.248-.18.492-.364.716-.58.032-.032.068-.052.096-.084L462.406 87.306l5.636 5.64-137.84 137.852c-3.056 3.052-3.056 7.996 0 11.048 1.524 1.524 3.524 2.288 5.524 2.288 1.996 0 3.996-.764 5.524-2.288L484.626 98.47c1.464-1.464 2.288-3.452 2.288-5.524s-.824-4.06-2.288-5.524l-11.172-11.168 19.692-19.692c9.14-9.127 9.14-23.995 0-33.135z"/>
</svg>